<?xml version="1.0" standalone="no"?>
<!DOCTYPE svg PUBLIC "-//W3C//DTD SVG 20010904//EN"
 "http://www.w3.org/TR/2001/REC-SVG-20010904/DTD/svg10.dtd">
<svg version="1.0" xmlns="http://www.w3.org/2000/svg"
 width="349.000000pt" height="349.000000pt" viewBox="0 0 349.000000 349.000000"
 preserveAspectRatio="xMidYMid meet">
<metadata>
Created by potrace 1.11, written by Peter Selinger 2001-2013
</metadata>
<g transform="translate(0.000000,349.000000) scale(0.100000,-0.100000)"
fill="#000000" stroke="none">
<path d="M1621 3187 c-97 -52 -136 -116 -136 -222 0 -58 5 -78 28 -117 111
-190 399 -144 444 70 22 105 -32 217 -130 269 -51 27 -155 27 -206 0z"/>
<path d="M995 2711 c-148 -40 -250 -98 -346 -198 -152 -156 -228 -343 -234
-573 -3 -112 -1 -137 25 -238 16 -65 47 -151 72 -200 l43 -86 110 1 c61 1 152
2 203 2 50 1 92 5 92 10 0 6 25 65 56 133 163 357 168 363 236 362 55 -2 88
-30 116 -100 13 -32 29 -72 37 -89 7 -16 36 -86 63 -155 67 -168 83 -203 86
-199 2 2 27 47 56 99 29 52 64 109 77 127 31 43 81 53 132 27 20 -10 39 -20
42 -22 4 -1 9 17 13 40 3 24 15 84 26 133 10 50 36 167 56 260 20 94 40 180
45 192 11 29 46 51 91 57 30 4 43 -1 72 -27 39 -34 35 -19 82 -321 3 -21 7
-48 10 -59 2 -12 6 -39 9 -62 3 -22 10 -62 15 -90 5 -27 12 -68 15 -90 3 -22
10 -65 15 -95 5 -30 11 -70 14 -88 2 -19 7 -36 10 -39 4 -5 163 -6 457 -4
l106 1 31 68 c116 251 134 477 55 712 -52 157 -138 281 -263 381 -69 55 -112
78 -208 111 -184 64 -399 42 -579 -59 -49 -27 -110 -74 -150 -113 l-68 -67
-71 71 c-131 132 -277 195 -469 202 -87 3 -125 0 -180 -15z"/>
<path d="M2073 1545 c-6 -22 -22 -96 -37 -165 -30 -142 -46 -168 -114 -177
-52 -7 -82 11 -121 73 l-28 45 -77 -136 c-43 -74 -89 -143 -103 -152 -13 -9
-40 -16 -59 -16 -67 0 -82 22 -181 264 -50 123 -94 233 -97 244 -7 22 -15 7
-125 -238 -36 -80 -40 -81 -243 -87 l-180 -5 64 -60 c35 -34 223 -202 418
-375 195 -173 357 -317 360 -320 3 -3 42 -38 88 -79 l83 -74 22 20 c12 11 146
129 297 263 151 134 311 275 355 314 43 39 104 93 135 120 70 62 200 187 200
192 0 2 -117 4 -261 4 -328 0 -323 -2 -348 145 -6 33 -13 78 -16 100 -3 22 -9
63 -13 90 l-9 50 -10 -40z"/>
<path d="M3051 1074 c0 -11 3 -14 6 -6 3 7 2 16 -1 19 -3 4 -6 -2 -5 -13z"/>
</g>
</svg>
